<svg width="394" height="58" viewBox="0 0 394 58" fill="none" xmlns="http://www.w3.org/2000/svg">
<path d="M173.095 57.7329H6.6575C2.99754 57.7329 0 54.4836 0 50.5163V7.21676C0 3.24945 2.99754 0.000173544 6.6575 0.000173544H173.095C176.755 0.000173544 179.753 3.24945 179.753 7.21676V50.5163C179.753 54.4836 176.755 57.7329 173.095 57.7329Z" fill="black"/>
<path d="M173.095 1.15663C176.177 1.15663 178.686 3.87548 178.686 7.21676V50.5163C178.686 53.8576 176.177 56.5765 173.095 56.5765H6.6575C3.57508 56.5765 1.06686 53.8576 1.06686 50.5163V7.21676C1.06686 3.87548 3.57508 1.15663 6.6575 1.15663H173.095ZM173.095 0.000173544H6.6575C2.99754 0.000173544 0 3.24945 0 7.21676V50.5163C0 54.4836 2.99754 57.7329 6.6575 57.7329H173.095C176.755 57.7329 179.753 54.4836 179.753 50.5163V7.21676C179.753 3.24945 176.755 0.000173544 173.095 0.000173544Z" fill="#A6A6A6"/>
<path d="M90.077 23.4465C86.9496 23.4465 84.3948 26.0264 84.3948 29.586C84.3948 33.1167 86.9496 35.7237 90.077 35.7237C93.211 35.7237 95.7658 33.1167 95.7658 29.586C95.7658 26.0264 93.211 23.4465 90.077 23.4465ZM90.077 33.3061C88.361 33.3061 86.8847 31.7708 86.8847 29.586C86.8847 27.3723 88.361 25.864 90.077 25.864C91.793 25.864 93.2759 27.3723 93.2759 29.586C93.2759 31.7708 91.793 33.3061 90.077 33.3061ZM77.6791 23.4465C74.545 23.4465 71.9969 26.0264 71.9969 29.586C71.9969 33.1167 74.545 35.7237 77.6791 35.7237C80.8114 35.7237 83.3612 33.1167 83.3612 29.586C83.3612 26.0264 80.8114 23.4465 77.6791 23.4465ZM77.6791 33.3061C75.9614 33.3061 74.4801 31.7708 74.4801 29.586C74.4801 27.3723 75.9614 25.864 77.6791 25.864C79.395 25.864 80.8713 27.3723 80.8713 29.586C80.8713 31.7708 79.395 33.3061 77.6791 33.3061ZM62.926 25.3282V27.937H68.6731C68.505 29.3947 68.0556 30.4664 67.3666 31.2133C66.5277 32.1154 65.2212 33.1167 62.926 33.1167C59.3892 33.1167 56.6197 30.0226 56.6197 26.1888C56.6197 22.3549 59.3892 19.2608 62.926 19.2608C64.8384 19.2608 66.2298 20.0709 67.2567 21.1209L68.9527 19.2825C67.5164 17.7959 65.6057 16.6538 62.926 16.6538C58.0761 16.6538 54 20.9315 54 26.1888C54 31.446 58.0761 35.7237 62.926 35.7237C65.5474 35.7237 67.5164 34.7927 69.0643 33.0463C70.6504 31.327 71.1447 28.9094 71.1447 26.9573C71.1447 26.3511 71.0981 25.7937 71.0149 25.3282H62.926ZM123.253 27.3506C122.785 25.9777 121.342 23.4465 118.403 23.4465C115.49 23.4465 113.065 25.9344 113.065 29.586C113.065 33.0247 115.465 35.7237 118.683 35.7237C121.284 35.7237 122.785 34.0043 123.403 33.003L121.472 31.6084C120.828 32.6296 119.951 33.3061 118.683 33.3061C117.423 33.3061 116.519 32.6801 115.94 31.446L123.514 28.0488L123.253 27.3506ZM115.53 29.3947C115.465 27.0277 117.226 25.8153 118.488 25.8153C119.477 25.8153 120.315 26.3511 120.595 27.1179L115.53 29.3947ZM109.374 35.3502H111.864V17.3087H109.374V35.3502ZM105.296 24.814H105.213C104.654 24.0959 103.587 23.4465 102.235 23.4465C99.3992 23.4465 96.8061 26.1455 96.8061 29.6058C96.8061 33.0463 99.3992 35.7237 102.235 35.7237C103.587 35.7237 104.654 35.0688 105.213 34.3291H105.296V35.2095C105.296 37.5567 104.139 38.8178 102.274 38.8178C100.752 38.8178 99.8086 37.6271 99.4191 36.6258L97.2538 37.6054C97.8779 39.2327 99.5306 41.2354 102.274 41.2354C105.193 41.2354 107.656 39.3735 107.656 34.8433V23.8199H105.296V24.814ZM102.448 33.3061C100.732 33.3061 99.296 31.7491 99.296 29.6058C99.296 27.4426 100.732 25.864 102.448 25.864C104.139 25.864 105.472 27.4426 105.472 29.6058C105.472 31.7491 104.139 33.3061 102.448 33.3061ZM134.91 17.3087H128.955V35.3502H131.438V28.5143H134.91C137.668 28.5143 140.373 26.3511 140.373 22.9106C140.373 19.4719 137.661 17.3087 134.91 17.3087ZM134.975 26.0047H131.438V19.8183H134.975C136.829 19.8183 137.888 21.4871 137.888 22.9106C137.888 24.307 136.829 26.0047 134.975 26.0047ZM150.326 23.4122C148.532 23.4122 146.666 24.271 145.898 26.1743L148.102 27.1756C148.576 26.1743 149.449 25.8496 150.371 25.8496C151.659 25.8496 152.965 26.6885 152.985 28.1697V28.3592C152.536 28.0777 151.574 27.6609 150.391 27.6609C148.017 27.6609 145.599 29.0772 145.599 31.7203C145.599 34.1378 147.543 35.6948 149.728 35.6948C151.399 35.6948 152.321 34.8775 152.9 33.9267H152.985V35.3214H155.384V28.4006C155.384 25.2019 153.18 23.4122 150.326 23.4122ZM150.026 33.2989C149.214 33.2989 148.082 32.8623 148.082 31.7708C148.082 30.3744 149.494 29.8386 150.715 29.8386C151.809 29.8386 152.321 30.1002 152.985 30.4447C152.791 32.1154 151.464 33.2989 150.026 33.2989ZM164.122 23.8073L161.267 31.6283H161.182L158.231 23.8073H155.554L159.987 34.7368L157.458 40.8186H160.052L166.885 23.8073H164.122ZM141.738 35.3502H144.227V17.3087H141.738V35.3502Z" fill="white"/>
<path d="M13.8941 10.8808C13.503 11.3246 13.2766 12.0156 13.2766 12.9105V44.8295C13.2766 45.7243 13.503 46.4153 13.8941 46.8591L13.9906 46.9565L30.4912 29.0774V28.6553L13.9906 10.7762L13.8941 10.8808Z" fill="url(#paint0_linear_318_137)"/>
<path d="M35.9856 35.0405L30.4915 29.0778V28.6556L35.9922 22.6929L36.1154 22.7705L42.6297 26.7884C44.4889 27.9286 44.4889 29.8049 42.6297 30.9523L36.1154 34.9629L35.9856 35.0405Z" fill="url(#paint1_linear_318_137)"/>
<path d="M36.1154 34.9626L30.4914 28.8664L13.8943 46.8591C14.5118 47.5627 15.5187 47.6475 16.6638 46.9439L36.1154 34.9626Z" fill="url(#paint2_linear_318_137)"/>
<path d="M36.1154 22.7705L16.6638 10.7891C15.5187 10.0927 14.5118 10.1775 13.8943 10.8811L30.4914 28.8667L36.1154 22.7705Z" fill="url(#paint3_linear_318_137)"/>
<path d="M393 51.0747C393 54.1514 390.709 56.6435 387.874 56.6435H220.132C217.3 56.6435 215 54.1514 215 51.0747V6.66542C215 3.59022 217.3 1.08936 220.132 1.08936H387.873C390.709 1.08936 392.999 3.59022 392.999 6.66542L393 51.0747Z" fill="black"/>
<path d="M387.333 1.15663C390.42 1.15663 392.932 3.87548 392.932 7.21676V50.5163C392.932 53.8576 390.42 56.5765 387.333 56.5765H220.667C217.58 56.5765 215.068 53.8576 215.068 50.5163V7.21676C215.068 3.87548 217.58 1.15663 220.667 1.15663H387.333ZM387.333 0.000173544H220.667C217.002 0.000173544 214 3.24945 214 7.21676V50.5163C214 54.4836 217.002 57.7329 220.667 57.7329H387.333C390.998 57.7329 394 54.4836 394 50.5163V7.21676C394 3.24945 390.998 0.000173544 387.333 0.000173544Z" fill="#A6A6A6"/>
<path d="M254.171 28.5546C254.132 23.9028 257.689 21.6397 257.852 21.5343C255.837 18.3547 252.715 17.9203 251.617 17.8856C248.995 17.5869 246.451 19.5844 245.115 19.5844C243.752 19.5844 241.695 17.9145 239.477 17.9636C236.624 18.0112 233.955 19.7995 232.491 22.5764C229.469 28.2386 231.723 36.5593 234.617 41.136C236.065 43.3775 237.757 45.8802 239.972 45.7922C242.139 45.6955 242.948 44.2969 245.563 44.2969C248.153 44.2969 248.913 45.7922 251.172 45.7359C253.497 45.6955 254.961 43.4843 256.359 41.2226C258.032 38.6535 258.704 36.1234 258.731 35.9935C258.676 35.9733 254.215 34.1302 254.171 28.5546Z" fill="white"/>
<path d="M249.904 14.8749C251.069 13.2973 251.867 11.1511 251.645 8.97314C249.959 9.05397 247.849 10.236 246.635 11.779C245.56 13.1386 244.6 15.367 244.848 17.4627C246.743 17.6157 248.688 16.4279 249.904 14.8749Z" fill="white"/>
<path d="M282.98 36.1427H279.952L278.293 30.5008H272.528L270.948 36.1427H268L273.712 16.9351H277.24L282.98 36.1427ZM277.793 28.1338L276.293 23.1182C276.135 22.6059 275.837 21.3992 275.399 19.4998H275.345C275.171 20.3168 274.889 21.5234 274.503 23.1182L273.029 28.1338H277.793Z" fill="white"/>
<path d="M297.669 29.0474C297.669 31.4029 297.081 33.2647 295.905 34.6316C294.852 35.8483 293.544 36.4559 291.983 36.4559C290.297 36.4559 289.087 35.8007 288.349 34.4901H288.296V41.7861H285.453V26.8521C285.453 25.3712 285.417 23.8514 285.348 22.2926H287.848L288.007 24.4879H288.06C289.008 22.8339 290.447 22.0083 292.377 22.0083C293.887 22.0083 295.147 22.6535 296.155 23.9452C297.165 25.2384 297.669 26.9387 297.669 29.0474ZM294.773 29.1599C294.773 27.8119 294.493 26.7005 293.931 25.8259C293.316 24.9137 292.491 24.4576 291.456 24.4576C290.755 24.4576 290.117 24.7116 289.548 25.2125C288.977 25.7176 288.604 26.3772 288.429 27.1941C288.341 27.5752 288.297 27.8869 288.297 28.1323V30.4416C288.297 31.449 288.583 32.2992 289.153 32.9934C289.724 33.6876 290.465 34.034 291.377 34.034C292.448 34.034 293.281 33.5866 293.877 32.6946C294.475 31.8012 294.773 30.6235 294.773 29.1599Z" fill="white"/>
<path d="M312.385 29.0474C312.385 31.4029 311.797 33.2647 310.62 34.6316C309.568 35.8483 308.26 36.4559 306.699 36.4559C305.013 36.4559 303.803 35.8007 303.067 34.4901H303.013V41.7861H300.171V26.8521C300.171 25.3712 300.135 23.8514 300.065 22.2926H302.565L302.724 24.4879H302.777C303.724 22.8339 305.163 22.0083 307.095 22.0083C308.603 22.0083 309.863 22.6535 310.873 23.9452C311.88 25.2384 312.385 26.9387 312.385 29.0474ZM309.489 29.1599C309.489 27.8119 309.208 26.7005 308.645 25.8259C308.031 24.9137 307.208 24.4576 306.172 24.4576C305.469 24.4576 304.833 24.7116 304.263 25.2125C303.692 25.7176 303.32 26.3772 303.145 27.1941C303.059 27.5752 303.013 27.8869 303.013 28.1323V30.4416C303.013 31.449 303.299 32.2992 303.867 32.9934C304.437 33.6862 305.179 34.034 306.093 34.034C307.164 34.034 307.997 33.5866 308.593 32.6946C309.191 31.8012 309.489 30.6235 309.489 29.1599Z" fill="white"/>
<path d="M328.839 30.7565C328.839 32.3903 328.315 33.7196 327.263 34.7458C326.107 35.8673 324.497 36.4273 322.429 36.4273C320.52 36.4273 318.989 36.0289 317.831 35.2308L318.489 32.666C319.737 33.4829 321.107 33.8928 322.599 33.8928C323.669 33.8928 324.503 33.6301 325.101 33.1076C325.697 32.5852 325.995 31.8837 325.995 31.0091C325.995 30.2297 325.749 29.573 325.257 29.0404C324.768 28.5078 323.951 28.0127 322.809 27.5552C319.703 26.301 318.151 24.4636 318.151 22.0475C318.151 20.4685 318.695 19.1738 319.784 18.1664C320.869 17.1575 322.317 16.6538 324.128 16.6538C325.743 16.6538 327.084 16.9583 328.155 17.566L327.444 20.0745C326.444 19.4856 325.313 19.1912 324.048 19.1912C323.048 19.1912 322.267 19.4582 321.707 19.9893C321.233 20.4642 320.996 21.0429 320.996 21.7285C320.996 22.4877 321.267 23.1155 321.811 23.6092C322.284 24.0652 323.144 24.5589 324.392 25.0914C325.919 25.7568 327.04 26.5348 327.761 27.4267C328.48 28.3158 328.839 29.4286 328.839 30.7565Z" fill="white"/>
<path d="M338.237 24.6021H335.104V31.3265C335.104 33.0368 335.656 33.8913 336.763 33.8913C337.271 33.8913 337.692 33.8436 338.025 33.7484L338.104 36.0851C337.544 36.3117 336.807 36.4257 335.893 36.4257C334.771 36.4257 333.893 36.0548 333.26 35.3144C332.629 34.5725 332.312 33.3284 332.312 31.5805V24.5992H330.445V22.2899H332.312V19.754L335.104 18.8418V22.2899H338.237V24.6021Z" fill="white"/>
<path d="M352.375 29.1037C352.375 31.2326 351.812 32.9804 350.689 34.3473C349.512 35.7545 347.949 36.4559 346.001 36.4559C344.124 36.4559 342.629 35.7819 341.515 34.4339C340.4 33.0858 339.843 31.3841 339.843 29.3332C339.843 27.1869 340.416 25.429 341.567 24.0622C342.715 22.6939 344.264 22.0098 346.212 22.0098C348.089 22.0098 349.6 22.6838 350.74 24.0333C351.831 25.3424 352.375 27.0325 352.375 29.1037ZM349.425 29.2033C349.425 27.9259 349.173 26.8305 348.663 25.9168C348.067 24.8112 347.215 24.2599 346.111 24.2599C344.968 24.2599 344.1 24.8127 343.504 25.9168C342.993 26.8319 342.741 27.9447 342.741 29.261C342.741 30.5383 342.993 31.6338 343.504 32.546C344.119 33.6516 344.977 34.2029 346.085 34.2029C347.171 34.2029 348.023 33.64 348.637 32.5171C349.161 31.5862 349.425 30.4792 349.425 29.2033Z" fill="white"/>
<path d="M361.615 24.9989C361.333 24.9426 361.033 24.9137 360.719 24.9137C359.719 24.9137 358.945 25.3222 358.401 26.1405C357.928 26.8622 357.691 27.7744 357.691 28.8756V36.1427H354.849L354.876 26.6543C354.876 25.058 354.84 23.6046 354.769 22.2941H357.245L357.349 24.944H357.428C357.728 24.0333 358.201 23.3001 358.849 22.7502C359.483 22.2551 360.167 22.0083 360.904 22.0083C361.167 22.0083 361.404 22.0285 361.615 22.0646V24.9989Z" fill="white"/>
<path d="M374.328 28.5625C374.328 29.1139 374.295 29.5786 374.224 29.9582H365.696C365.729 31.3265 366.141 32.3729 366.933 33.0945C367.652 33.7397 368.581 34.063 369.723 34.063C370.985 34.063 372.137 33.8451 373.173 33.4077L373.619 35.5438C372.408 36.1154 370.979 36.3997 369.329 36.3997C367.345 36.3997 365.788 35.7676 364.655 34.5047C363.524 33.2417 362.957 31.5458 362.957 29.4184C362.957 27.3299 363.484 25.5907 364.539 24.2037C365.643 22.7228 367.135 21.9824 369.012 21.9824C370.856 21.9824 372.252 22.7228 373.2 24.2037C373.951 25.38 374.328 26.8349 374.328 28.5625ZM371.617 27.7644C371.636 26.8522 371.451 26.0641 371.065 25.3988C370.573 24.5429 369.817 24.1156 368.8 24.1156C367.871 24.1156 367.115 24.5328 366.537 25.3699C366.064 26.0353 365.783 26.8334 365.696 27.7629H371.617V27.7644Z" fill="white"/>
<defs>
<linearGradient id="paint0_linear_318_137" x1="29.0262" y1="45.1618" x2="4.88238" y2="22.8885" gradientUnits="userSpaceOnUse">
<stop stop-color="#00A0FF"/>
<stop offset="0.0066" stop-color="#00A1FF"/>
<stop offset="0.2601" stop-color="#00BEFF"/>
<stop offset="0.5122" stop-color="#00D2FF"/>
<stop offset="0.7604" stop-color="#00DFFF"/>
<stop offset="1" stop-color="#00E3FF"/>
</linearGradient>
<linearGradient id="paint1_linear_318_137" x1="45.0506" y1="28.8647" x2="12.8324" y2="28.8647" gradientUnits="userSpaceOnUse">
<stop stop-color="#FFE000"/>
<stop offset="0.4087" stop-color="#FFBD00"/>
<stop offset="0.7754" stop-color="#FFA500"/>
<stop offset="1" stop-color="#FF9C00"/>
</linearGradient>
<linearGradient id="paint2_linear_318_137" x1="33.0572" y1="25.5524" x2="0.316277" y2="-4.65207" gradientUnits="userSpaceOnUse">
<stop stop-color="#FF3A44"/>
<stop offset="1" stop-color="#C31162"/>
</linearGradient>
<linearGradient id="paint3_linear_318_137" x1="9.71644" y1="57.4788" x2="24.3367" y2="43.9913" gradientUnits="userSpaceOnUse">
<stop stop-color="#32A071"/>
<stop offset="0.0685" stop-color="#2DA771"/>
<stop offset="0.4762" stop-color="#15CF74"/>
<stop offset="0.8009" stop-color="#06E775"/>
<stop offset="1" stop-color="#00F076"/>
</linearGradient>
</defs>
</svg>
