<svg width="835" height="117" viewBox="0 0 835 117" fill="none" xmlns="http://www.w3.org/2000/svg">
<path d="M153 4V20.371M153 39V20.371M153 20.371H178.5C178.777 20.371 179 20.1471 179 19.871V4V39" stroke="#A32C14" stroke-width="6" stroke-linecap="round" stroke-linejoin="round"/>
<path d="M246 5L256.86 38.601C257.007 39.0553 257.646 39.065 257.806 38.6154L269.127 6.91605C269.288 6.4643 269.932 6.47694 270.075 6.93468L279.973 38.5176C280.118 38.9812 280.772 38.9862 280.925 38.5249L292 5" stroke="#A32C14" stroke-width="6" stroke-linecap="round" stroke-linejoin="round"/>
<path d="M472 105L477.586 91.5164M501 105L495.414 91.5164M495.414 91.5164L486.962 71.115C486.792 70.7035 486.209 70.7035 486.038 71.115L477.586 91.5164M495.414 91.5164H477.586" stroke="#806121" stroke-width="6" stroke-linecap="round" stroke-linejoin="round"/>
<path d="M556 105L561.586 91.5164M585 105L579.414 91.5164M579.414 91.5164L570.962 71.115C570.792 70.7035 570.209 70.7035 570.038 71.115L561.586 91.5164M579.414 91.5164H561.586" stroke="#A32C14" stroke-width="6" stroke-linecap="round" stroke-linejoin="round"/>
<path d="M113 4H126.5M140 4H126.5M126.5 4V39" stroke="#A32C14" stroke-width="6" stroke-linecap="round" stroke-linejoin="round"/>
<path d="M744 4H757.5M771 4H757.5M757.5 4V39" stroke="#A32C14" stroke-width="6" stroke-linecap="round" stroke-linejoin="round"/>
<path d="M612 69H625.5M639 69H625.5M625.5 69V104" stroke="#46587D" stroke-width="6" stroke-linecap="round" stroke-linejoin="round"/>
<path d="M502 69H515.5M529 69H515.5M515.5 69V104" stroke="#46587D" stroke-width="6" stroke-linecap="round" stroke-linejoin="round"/>
<path d="M418 69H431.5M445 69H431.5M431.5 69V104" stroke="black" stroke-width="6" stroke-linecap="round" stroke-linejoin="round"/>
<path d="M529 4V39" stroke="#A32C14" stroke-width="6" stroke-linecap="round" stroke-linejoin="round"/>
<path d="M650 69V104" stroke="#A32C14" stroke-width="6" stroke-linecap="round" stroke-linejoin="round"/>
<path d="M23.0004 4.95499C13.7696 1.30869 8.23114 3.13206 6.07729 7.38575C3.92344 11.6394 8.53883 18.0204 14.385 21.3626C20.2311 24.7047 23.0004 26.832 22.6927 32.6048C22.385 38.3777 11.6799 43.1036 3.00037 37.4663" stroke="#A32C14" stroke-width="6" stroke-linecap="round" stroke-linejoin="round"/>
<path d="M410 71.8493C401.231 68.4001 395.97 70.1249 393.923 74.1487C391.877 78.1724 396.262 84.2085 401.816 87.37C407.37 90.5315 410 92.5437 409.708 98.0046C409.416 103.465 399.246 107.936 391 102.603" stroke="black" stroke-width="6" stroke-linecap="round" stroke-linejoin="round"/>
<path d="M320.177 70C319.33 100.404 321.147 105.215 334.293 104.993C347.44 104.77 346.999 97.2485 346.999 70" stroke="black" stroke-width="6" stroke-linecap="round" stroke-linejoin="round"/>
<path d="M339 111.436C334.454 113.316 321.752 117.351 307.442 108.482C293.132 99.612 287.384 94.5154 279.896 97.7384M287.117 69C297.012 69 303.163 77.8632 303.431 86.4579C303.698 95.0525 296.477 105.527 286.849 104.99C277.221 104.453 270 95.8583 270 86.995C270 78.1318 277.221 69 287.117 69Z" stroke="black" stroke-width="6" stroke-linecap="round" stroke-linejoin="round"/>
<path d="M55.3932 4H39.5004C39.2242 4 39.0004 4.22386 39.0004 4.5V19.8547M39.0004 19.8547H53.5718M39.0004 19.8547V38.5C39.0004 38.7761 39.2242 39 39.5004 39H56.0004" stroke="#806121" stroke-width="6" stroke-linecap="round" stroke-linejoin="round"/>
<path d="M85.3932 4H69.5004C69.2242 4 69.0004 4.22386 69.0004 4.5V19.8547M69.0004 19.8547H83.5718M69.0004 19.8547V38.5C69.0004 38.7761 69.2242 39 69.5004 39H86.0004" stroke="#46587D" stroke-width="6" stroke-linecap="round" stroke-linejoin="round"/>
<path d="M215.393 4H199.5C199.224 4 199 4.22386 199 4.5V19.8547M199 19.8547H213.572M199 19.8547V38.5C199 38.7761 199.224 39 199.5 39H216" stroke="#806121" stroke-width="6" stroke-linecap="round" stroke-linejoin="round"/>
<path d="M623.393 4H607.5C607.224 4 607 4.22386 607 4.5V19.8547M607 19.8547H621.572M607 19.8547V38.5C607 38.7761 607.224 39 607.5 39H624" stroke="#806121" stroke-width="6" stroke-linecap="round" stroke-linejoin="round"/>
<path d="M689.393 4H673.5C673.224 4 673 4.22386 673 4.5V19.8547M673 19.8547H687.572M673 19.8547V38.5C673 38.7761 673.224 39 673.5 39H690" stroke="#806121" stroke-width="6" stroke-linecap="round" stroke-linejoin="round"/>
<path d="M381.393 69H365.5C365.224 69 365 69.2239 365 69.5V84.8547M365 84.8547H379.572M365 84.8547V103.5C365 103.776 365.224 104 365.5 104H382" stroke="black" stroke-width="6" stroke-linecap="round" stroke-linejoin="round"/>
<path d="M235.393 69H219.5C219.224 69 219 69.2239 219 69.5V84.8547M219 84.8547H233.572M219 84.8547V103.5C219 103.776 219.224 104 219.5 104H236" stroke="#A32C14" stroke-width="6" stroke-linecap="round" stroke-linejoin="round"/>
<path d="M733.393 69H717.5C717.224 69 717 69.2239 717 69.5V84.8547M717 84.8547H731.572M717 84.8547V103.5C717 103.776 717.224 104 717.5 104H734" stroke="#806121" stroke-width="6" stroke-linecap="round" stroke-linejoin="round"/>
<path d="M302 24.0006C300.315 13.8335 310.193 4.25295 319.5 4.00064C328.807 3.74834 338.554 12.1604 338 24.0006C337.447 35.8409 329.552 40.684 319.5 41.0006C309.449 41.3173 303.686 34.1678 302 24.0006Z" stroke="#806121" stroke-width="6" stroke-linecap="round" stroke-linejoin="round"/>
<path d="M120.19 89.0055C118.504 78.8384 128.383 69.2578 137.69 69.0055C146.997 68.7532 156.743 77.1653 156.19 89.0055C155.636 100.846 147.741 105.689 137.69 106.006C127.638 106.322 121.875 99.1727 120.19 89.0055Z" stroke="#A32C14" stroke-width="6" stroke-linecap="round" stroke-linejoin="round"/>
<path d="M353 40.5V25.0003M353 25.0003V4.98428C353 4.71449 353.22 4.49314 353.49 4.48441C366.729 4.05596 371.5 4.12157 371.5 14.0003C371.5 24 364.471 24.6765 353 25.0003ZM365 25.5003C369.5 33 376.5 41 382.5 41.5003" stroke="#A32C14" stroke-width="6" stroke-linecap="round" stroke-linejoin="round"/>
<path d="M637 40.1455V24.6458M637 24.6458V4.62978C637 4.36 637.22 4.13864 637.49 4.12992C650.729 3.70147 655.5 3.76708 655.5 13.6458C655.5 23.6455 648.471 24.3221 637 24.6458ZM649 25.1458C653.5 32.6455 660.5 40.6455 666.5 41.1458" stroke="#46587D" stroke-width="6" stroke-linecap="round" stroke-linejoin="round"/>
<path d="M389.5 4V40C389.5 40.2761 389.724 40.5 390 40.5H407.5" stroke="#46587D" stroke-width="6" stroke-linecap="round" stroke-linejoin="round"/>
<path d="M782 4V40C782 40.2761 782.224 40.5 782.5 40.5H800" stroke="#806121" stroke-width="6" stroke-linecap="round" stroke-linejoin="round"/>
<path d="M703.5 41V6.83274C703.5 6.37082 704.073 6.15593 704.377 6.50387L733.624 39.9961C733.928 40.3441 734.5 40.1292 734.5 39.6673V4" stroke="#A32C14" stroke-width="6" stroke-linecap="round" stroke-linejoin="round"/>
<path d="M172 106V71.8327C172 71.3708 172.573 71.1559 172.877 71.5039L202.124 104.996C202.428 105.344 203 105.129 203 104.667V69" stroke="#46587D" stroke-width="6" stroke-linecap="round" stroke-linejoin="round"/>
<path d="M663 105.5L668.715 71.687C668.799 71.1942 669.473 71.115 669.669 71.575L682.57 101.987C682.738 102.382 683.293 102.396 683.481 102.009L698.284 71.477C698.5 71.0326 699.16 71.1363 699.229 71.6254L704 105.5" stroke="#A32C14" stroke-width="6" stroke-linecap="round" stroke-linejoin="round"/>
<path d="M563.5 4H546.5C546.224 4 546 4.22386 546 4.5V21M546 21H561.5M546 21V41" stroke="#806121" stroke-width="6" stroke-linecap="round" stroke-linejoin="round"/>
<path d="M594.5 4H577.5C577.224 4 577 4.22386 577 4.5V21M577 21H592.5M577 21V41" stroke="#A32C14" stroke-width="6" stroke-linecap="round" stroke-linejoin="round"/>
<path d="M815.5 40.5V27M815.5 27L829 4M815.5 27L801.5 4" stroke="#46587D" stroke-width="6" stroke-linecap="round" stroke-linejoin="round"/>
<path d="M418.5 40.0342V5.40306C418.5 5.16791 418.666 4.96388 418.896 4.91613C428.533 2.91774 436.833 4.86038 443 10.0002C449.252 15.2102 449 30.0002 444.5 35.0002C440.045 39.9508 434.624 41.5942 418.972 40.5328C418.71 40.5151 418.5 40.2967 418.5 40.0342Z" stroke="#806121" stroke-width="6" stroke-linecap="round" stroke-linejoin="round"/>
<path d="M484.5 40.0342V5.40306C484.5 5.16791 484.666 4.96388 484.896 4.91613C494.533 2.91774 502.833 4.86038 509 10.0002C515.252 15.2102 515 30.0002 510.5 35.0002C506.045 39.9508 500.624 41.5942 484.972 40.5328C484.71 40.5151 484.5 40.2967 484.5 40.0342Z" stroke="#46587D" stroke-width="6" stroke-linecap="round" stroke-linejoin="round"/>
<path d="M831 40C831.5 41.5 830.792 42.8921 829 45.5" stroke="#806121" stroke-width="6" stroke-linecap="round" stroke-linejoin="round"/>
</svg>
