<svg width="1440" height="1006" viewBox="0 0 1440 1006" fill="none" xmlns="http://www.w3.org/2000/svg">
<path d="M1437.08 620.469C1435.66 620.469 1414.74 611.5 1387 611.5M1268.5 619.5C1252.5 622.5 1190.89 639.121 1171.51 645.927C1155.11 651.686 1133.47 657.041 1120.86 665.667C1093.16 684.619 1038.75 715.195 1014.66 732.038C1002.04 740.862 983.457 751.789 949.513 772.143C894.812 804.943 855.627 832.946 837.373 841.884C796.941 861.683 763.202 910.394 737 916.5M568.5 927.5C533.5 927.5 469.356 908.352 449.616 923.741C436.776 933.751 420.549 936.352 405.44 944.946C382.894 957.77 348.051 972.968 328.989 984.781C317.62 991.827 304.242 995.238 276.349 998.814C190.019 1009.88 177.854 993.128 166.708 987.721C154.235 981.672 142.66 972.321 126.183 965.827C100.462 955.69 85.9707 941.435 73.7368 932.098C59.2025 921.006 47.8906 909.127 31.4029 895.494C17.0044 886.857 4.12445 875.398 -6.3217 866.04C-8.84171 863.875 -11.6848 861.743 -18.9218 859.546" stroke="#B49C6A" stroke-width="6" stroke-linecap="round" stroke-dasharray="20 20"/>
<path d="M184 3C185.5 5 185.302 5.14522 186.5 7C187.698 8.85478 187.058 7.99954 188.254 9.8715C189.449 11.7435 189.688 11.9822 189.934 12.5899" stroke="#B49C6A" stroke-width="6" stroke-linecap="round"/>
<path d="M195 24C195 24.5 195.913 26.2956 196.722 28.3084C197.646 30.7803 198.5 33.5 199.079 35.8381C199.364 36.9931 199.372 38.3583 199.372 39.7669" stroke="#B49C6A" stroke-width="6" stroke-linecap="round"/>
<path d="M199 51C199 52 199.02 53.0913 199.196 55.2145C199.372 57.3377 199.313 61.5 199.258 62.3989C199.191 63.5 198.735 64.5305 198.5 65" stroke="#B49C6A" stroke-width="6" stroke-linecap="round"/>
<path d="M194.5 77.5C194 79 193.503 80.1512 193.104 81.7531C191.908 84.7221 190.631 87.1699 189.769 88.2609C189.364 88.7822 189.022 89.2379 188.67 89.7074" stroke="#B49C6A" stroke-width="6" stroke-linecap="round"/>
<path d="M182.5 99.5C181.5 101 181 102 179.866 103.106C177.962 104.964 169 110 168.201 110.359C167.335 110.749 166.5 111 166.008 111.166C165.516 111.331 164.66 111.648 163.5 112" stroke="#B49C6A" stroke-width="6" stroke-linecap="round"/>
<path d="M149.658 117.327C145.784 118.466 142.535 119.395 140.238 119.969C138.396 120.316 137 121 135.5 121.5C134.804 121.732 134.505 122.03 133 122.5" stroke="#B49C6A" stroke-width="6" stroke-linecap="round"/>
<path d="M122.125 125.785C118.797 125.785 113.913 126.66 112.351 127.103C109.703 127.856 108 128.5 107.228 128.773C106.788 128.928 105.97 129.383 105.5 129.5" stroke="#B49C6A" stroke-width="6" stroke-linecap="round"/>
<path d="M94.8509 132.344C91.7576 134.06 89.461 135.393 87.5 137C87.0374 137.35 85.5 138.5 85 139C84.6809 139.319 84.5 139.5 83.1128 140.975" stroke="#B49C6A" stroke-width="6" stroke-linecap="round"/>
<path d="M74 152.5C74 152.728 73.446 153.169 73.2752 155.451C73.1043 157.733 72.7625 162.062 72.4725 164.521C72.1825 166.979 72 167.5 72 168" stroke="#B49C6A" stroke-width="6" stroke-linecap="round"/>
<path d="M70.8568 179.556C70.8568 182.639 70.1888 190.5 69.9955 191.575C69.7393 193 69.5731 194.966 69 196C68.6548 196.464 68.4695 197.648 68 198" stroke="#B49C6A" stroke-width="6" stroke-linecap="round"/>
<path d="M63 208C62.4269 208.911 60.8656 213.024 57.7481 215.224C56.3706 216.255 55.2636 217.157 54 217.5C53.42 217.73 52.5 218 51.5 218.5" stroke="#B49C6A" stroke-width="6" stroke-linecap="round"/>
<path d="M40.1305 223.056C38.6425 223.626 36.3392 225.588 33.7522 226.272C31 227 28.5 229 25.6961 230.65C25.2358 230.92 24.5 232 24.5 232" stroke="#B49C6A" stroke-width="6" stroke-linecap="round"/>
<path d="M17 239.5C16 240.5 11.3652 242.61 11.0734 245.6C11.0165 246.298 10.9025 246.753 10.8438 247.786C10.7852 248.818 10.5 250.5 10 252" stroke="#B49C6A" stroke-width="6" stroke-linecap="round"/>
<path d="M7.15482 261C6.24338 262.602 3.02575 265.364 -0.026166 266.004C-0.778787 266.175 -1.46236 266.517 -2.55504 266.807C-3.64772 267.097 -5.1288 267.325 -7 267.56" stroke="#B49C6A" stroke-width="6" stroke-linecap="round"/>
<path d="M491.5 4.5C492.059 4.98792 493.028 6.61591 493.46 7.27976C494.074 8.22318 494.582 10.4344 494.971 11.8025C495.603 14.025 496.5 17 496.582 17.3768C496.68 17.8245 497.379 21.5 497.423 21.6871C497.531 22.1424 497.531 22.767 497.741 24.0415" stroke="#B49C6A" stroke-width="6" stroke-linecap="round"/>
<path d="M499.5 35C500 37 499.947 39.5 499.947 40.8377C499.947 43.516 499.912 46.7165 499.947 49.5C500.051 52.6305 500.29 53.4059 500.5 54C500.572 54.3165 501 56 501 56.5" stroke="#B49C6A" stroke-width="6" stroke-linecap="round"/>
<path d="M502.5 67C502.5 68.5311 502.818 72.2637 503.697 75.227C504.363 77.1913 505.335 80.4095 506.5 82.5C506.703 82.8636 507 84 507 84" stroke="#B49C6A" stroke-width="6" stroke-linecap="round"/>
<path d="M512 93.5C512.5 94 514.261 95.4902 515.281 96.3325C516.609 97.4292 518.051 98.7837 519.205 99.6975C520.373 100.622 523.205 102.42 523.5 102.5C523.795 102.58 525.5 103.5 525.5 103.5L527 104" stroke="#B49C6A" stroke-width="6" stroke-linecap="round"/>
<path d="M537 110C537.5 110.5 540.774 112.662 542 113.5C544.519 115.222 543.969 114.563 546.683 116.328C548.576 117.559 548.874 118.059 550 119.5C550.281 119.818 551 120.5 551 120.5C551 120.5 552.5 122.5 552.684 122.572" stroke="#B49C6A" stroke-width="6" stroke-linecap="round"/>
<path d="M559.5 129.5C559.627 129.5 561.5 131 561.5 131C561.5 131 562.463 131.698 563.977 132.699C566.469 134.347 570.243 136.4 572.186 137.239C573.379 137.754 573.774 137.982 575 138.5C575.415 138.675 576.454 138.936 577 139C577.291 139.064 578.672 139.369 579 139.5" stroke="#B49C6A" stroke-width="6" stroke-linecap="round"/>
<path d="M589.5 143.5C590.398 143.95 590.47 143.998 591.567 144.708C592.463 145.288 593.305 145.929 594.303 146.703C595.384 147.542 596.585 148.247 597.716 149.021C598.758 149.734 601.5 151.5 602 152C602.5 152.5 603.5 153.5 603.5 153.5L605 155.5" stroke="#B49C6A" stroke-width="6" stroke-linecap="round"/>
<path d="M613.5 164C614.524 164.639 615.333 165.398 617.14 166.724C618.52 167.737 619.393 168.817 620.554 170.007C622.003 171.492 622.226 171.808 623 173C623.385 173.547 624.147 174.39 624.5 175C624.662 175.292 624.869 175.737 625 176" stroke="#B49C6A" stroke-width="6" stroke-linecap="round"/>
<path d="M630 186C630.45 186.641 630.787 188 631 188.5C631.122 188.787 631.346 190.583 631.405 191.044C631.464 191.504 631.824 193.138 632.017 195.278C632.083 197.1 632.083 200.414 632.083 203.829" stroke="#B49C6A" stroke-width="6" stroke-linecap="round"/>
<path d="M630.731 214.983C630 218 629.203 218.798 628.319 220.417C628 221 626.5 224 626.164 224.313C625.705 224.741 622.921 226.175 622.402 226.441C621.674 226.813 618.5 227.5 616.735 227.697C615.671 227.816 614.704 227.988 613.997 228.148C613.672 228.245 613 228.5 612.5 229" stroke="#B49C6A" stroke-width="6" stroke-linecap="round"/>
<path d="M602 234C601.5 234.5 600.615 234.846 600.22 235.225C599.235 236.168 598.01 236.975 596.5 239C595.374 240.509 594.62 241.278 593.938 242.597C593.071 244.276 593.047 244.979 592.5 248C592.304 249.086 592 251 591.921 251.419C591.823 251.933 591.5 252.712 591.5 253.5" stroke="#B49C6A" stroke-width="6" stroke-linecap="round"/>
<path d="M590.602 264.426C590.602 264.758 591 268.793 591.101 269.473C591.399 271.5 595.294 280.408 595.792 281.104C596.223 281.707 597.629 283.774 599.159 286.069" stroke="#B49C6A" stroke-width="6" stroke-linecap="round"/>
<path d="M576 302C576.322 302 577.537 302 583.438 303.371C588.35 304.511 600 308.508 601.643 309.056C605 310.173 608.055 311.948 610 313C613.431 314.856 616.012 316.388 617.632 317.36C620.33 318.977 625 322.5 627 324.323C628.29 325.5 630.892 327.715 633.5 330C635.216 331.794 637.344 334.333 639.5 336C640.366 336.7 640.585 337.085 641 337.5" stroke="#A32C14" stroke-width="6" stroke-linecap="round"/>
<path d="M588 341C588.161 340.194 588.829 338.109 590.163 335.05C591.16 332.762 593.012 329.072 596.588 324.678C599.242 321.417 601.888 318.755 605.981 315.714C608.562 313.796 612.226 311.068 614.5 309.5C617.516 307.42 620.206 305.646 623.863 303.287C625.084 302.5 635 298.696 635.724 298.51C636.823 298.226 638.275 297.743 639.183 297.493C640.092 297.244 640.415 297.244 641.48 297" stroke="#A32C14" stroke-width="6" stroke-linecap="round"/>
<path d="M1308.58 625.586C1306.76 625.681 1305.3 625.757 1304.31 625.81C1303.32 625.861 1302.35 625.692 1301.46 625.317L1290.37 620.641C1286.17 618.868 1285.9 613.637 1289.89 611.435L1300.43 605.626C1301.27 605.161 1302.22 604.89 1303.21 604.838C1304.19 604.787 1305.64 604.711 1307.48 604.614M1308.58 625.586L1333.41 654.281C1334.22 655.214 1335.41 655.723 1336.65 655.658L1336.81 655.649C1339.33 655.517 1341.1 653.112 1340.48 650.666L1335.07 629.455L1334.79 624.212M1308.58 625.586C1314.58 625.271 1324.53 624.75 1334.79 624.212M1307.48 604.614L1329.18 573.48C1329.88 572.468 1331.02 571.838 1332.25 571.773L1332.41 571.764C1334.94 571.632 1336.95 573.839 1336.58 576.337L1333.42 597.998L1333.69 603.241M1307.48 604.614C1313.16 604.317 1322.59 603.823 1333.69 603.241M1333.69 603.241C1334.27 603.21 1334.85 603.18 1335.44 603.149C1338.51 602.988 1341.7 602.821 1344.96 602.65C1347.58 602.513 1350.29 602.753 1352.97 603.231M1334.79 624.212C1335.37 624.181 1335.96 624.151 1336.54 624.12C1339.74 623.953 1342.95 623.785 1346.06 623.622C1348.68 623.484 1351.35 622.962 1353.96 622.207M1353.96 622.207L1365.6 643.626L1369.1 643.443L1367.67 616.25M1353.96 622.207C1359.06 620.733 1363.91 618.372 1367.67 616.25M1367.67 616.25C1367.98 616.073 1368.29 615.897 1368.59 615.724C1371.9 613.799 1371.69 609.718 1368.19 608.149C1367.88 608.008 1367.55 607.866 1367.22 607.723M1367.22 607.723L1365.8 580.529L1362.3 580.712L1352.97 603.231M1367.22 607.723C1363.26 606.005 1358.19 604.164 1352.97 603.231" stroke="#B49C6A" stroke-width="6" stroke-linejoin="round"/>
<path d="M223.569 932.659C222.253 939.43 215.697 943.851 208.927 942.535C202.157 941.219 197.735 934.664 199.051 927.894C200.367 921.123 206.922 916.702 213.693 918.018C220.463 919.334 224.885 925.889 223.569 932.659ZM204.266 928.907C203.509 932.798 206.05 936.564 209.941 937.321C213.831 938.077 217.598 935.536 218.354 931.646C219.11 927.755 216.569 923.988 212.679 923.232C208.789 922.476 205.022 925.017 204.266 928.907Z" fill="#B49C6A"/>
<path d="M211.651 941.61L212.327 947.557M231.064 998.815L219.313 984.979C219.26 984.917 219.224 984.842 219.206 984.763L216.722 973.492M216.722 973.492L215.496 966.71L212.327 947.557M216.722 973.492L205.669 980.344C205.599 980.387 205.542 980.446 205.501 980.517L198.491 992.484M216.722 973.492L212.327 947.557M212.327 947.557L198.111 958.618C197.906 958.777 197.614 958.753 197.438 958.563L186.628 946.923M212.327 947.557L229.914 962.084C230.068 962.211 230.131 962.416 230.076 962.607L226.801 973.997" stroke="#B49C6A" stroke-width="6" stroke-linecap="round" stroke-linejoin="round"/>
<path d="M172.672 912.706C169.224 918.679 161.586 920.725 155.613 917.277C149.64 913.828 147.594 906.191 151.042 900.217C154.491 894.244 162.128 892.198 168.101 895.646C174.074 899.095 176.121 906.733 172.672 912.706ZM155.643 902.874C153.661 906.306 154.837 910.695 158.269 912.676C161.702 914.658 166.09 913.482 168.072 910.05C170.054 906.617 168.878 902.229 165.445 900.247C162.013 898.265 157.624 899.441 155.643 902.874Z" fill="#B49C6A"/>
<path d="M158.49 917.289L157.193 923.132M158.221 977.699L151.615 960.79C151.585 960.714 151.575 960.632 151.584 960.551L152.905 949.085M152.905 949.085L153.953 942.274L157.193 923.132M152.905 949.085L140.223 951.966C140.143 951.984 140.069 952.021 140.008 952.074L129.484 961.107M152.905 949.085L157.193 923.132M157.193 923.132L140.15 928.962C139.905 929.046 139.636 928.929 139.531 928.692L133.101 914.167M157.193 923.132L169.092 942.594C169.196 942.764 169.19 942.979 169.075 943.142L162.271 952.844" stroke="#B49C6A" stroke-width="6" stroke-linecap="round" stroke-linejoin="round"/>
<path d="M698.078 926.496H586.52C586.268 926.496 586.053 926.688 586.033 926.94C584.972 940.155 609.65 950.002 616.078 950.496C622.578 950.996 650.655 951.889 672.578 949.496C692.033 945.878 704.579 939.996 705.078 934.496C705.578 928.996 698.078 926.496 698.078 926.496ZM698.078 926.496C681.579 915.499 588.079 911 586.078 925.996M680.579 919.5C678.814 914.413 677.37 913.27 674.579 913H613.579C610.394 913.348 609.471 914.256 608.579 916.5M656.579 912C654.32 902.801 653.069 897.579 648.579 897.5H636.199C636.12 897.5 636.04 897.519 635.97 897.556C631.105 900.102 631.252 904.191 631.579 911.5M632.579 904.5H643.579M703.579 934.496H690.579M692.079 922.5C692.782 919.633 700.579 910 702.079 911.5C703.579 913 703.232 922.395 703.578 929.5M706.078 932.5C706.078 932.5 715.578 932.5 717.077 932.5C718.576 932.5 718.576 936.5 717.077 936.5C715.578 936.5 706.078 936.5 706.078 936.5M692.077 946C696.577 952.983 699.022 956.226 702.157 956.922C702.397 956.976 702.633 956.824 702.704 956.589C704.908 949.331 703.805 945.988 703.577 939.5M646.577 896V868M638.077 896V886C638.077 885.724 637.853 885.5 637.577 885.5H635.077M642.077 896V884.5C642.123 881.431 641.589 880.603 640.164 880.034C640.107 880.011 640.046 880 639.984 880H634.577M634.577 880C634.577 880 636.077 883.5 634.577 885.5C633.077 887.5 631.848 887.753 630.577 885.5C629.601 883.315 629.664 882.122 630.549 880.064C630.567 880.022 630.592 879.981 630.621 879.946C632.157 878.078 633.028 877.933 634.577 880ZM712.577 931C713.642 926.053 713.894 923.33 713.587 918.653C713.581 918.554 713.544 918.456 713.482 918.379C711.683 916.095 710.712 916.261 709.166 918.377C709.108 918.456 709.075 918.553 709.071 918.651C708.894 923.45 709.287 926.184 710.577 931M709.212 951.138C710.787 952.721 711.736 952.759 713.431 951.141C713.525 951.052 713.579 950.925 713.582 950.795C713.741 943.981 713.417 940.866 712.01 938.241C711.829 937.903 711.353 937.92 711.181 938.262C709.472 941.651 708.863 944.431 709.07 950.806C709.074 950.929 709.124 951.05 709.212 951.138Z" stroke="#B49C6A" stroke-width="4" stroke-linecap="round" stroke-linejoin="round"/>
</svg>
