<svg width="581" height="72" viewBox="0 0 581 72" fill="none" xmlns="http://www.w3.org/2000/svg">
<path d="M47 14.277C42.2647 4.46391 24.9016 1.47977 15.1456 10.0105C5.38954 18.5414 3.49498 30.0634 3.09239 36.0365C2.68981 42.0096 3.09239 59.5023 15.1456 66.7551C18.1588 68.8887 40.1125 72.7285 44.4171 59.929" stroke="#A32C14" stroke-width="6" stroke-linecap="round"/>
<path d="M381 14.277C376.265 4.46391 358.902 1.47977 349.146 10.0105C339.39 18.5414 337.495 30.0634 337.092 36.0365C336.69 42.0096 337.092 59.5023 349.146 66.7551C352.159 68.8887 374.112 72.7285 378.417 59.929" stroke="#A32C14" stroke-width="6" stroke-linecap="round"/>
<path d="M61.3292 39.59C58.3971 22.011 75.5832 5.44628 91.7752 5.01004C107.967 4.57381 124.923 19.1182 123.961 39.59C122.998 60.0618 109.262 68.4355 91.7752 68.983C74.2882 69.5305 64.2612 57.169 61.3292 39.59Z" stroke="#A32C14" stroke-width="6" stroke-linecap="round" stroke-linejoin="round"/>
<path d="M138 69.0005V8.9208C138 8.45973 138.571 8.24438 138.875 8.59061L191.125 68.005C191.429 68.3512 192 68.1358 192 67.6748V5.00049" stroke="#A32C14" stroke-width="6" stroke-linecap="round" stroke-linejoin="round"/>
<path d="M206 5.00049H231M256 5.00049H231M231 5.00049V69.0005" stroke="#A32C14" stroke-width="6" stroke-linecap="round" stroke-linejoin="round"/>
<path d="M395 5.00049H420M445 5.00049H420M420 5.00049V69.0005" stroke="#46587D" stroke-width="6" stroke-linecap="round" stroke-linejoin="round"/>
<path d="M270 69.0005L280.209 44.3447M323 69.0005L312.791 44.3447M312.791 44.3447L296.962 6.11618C296.792 5.70455 296.208 5.70455 296.038 6.11618L280.209 44.3447M312.791 44.3447H280.209" stroke="#A32C14" stroke-width="6" stroke-linecap="round" stroke-linejoin="round"/>
<path d="M488.517 3.00049C485.933 21.7661 487.144 43.193 488.517 51.0467C489.89 58.9004 499.616 68.6824 512.319 66.7541C525.022 64.8259 526.509 57.9765 528.34 51.0467C530.171 44.117 530.905 21.3528 528.34 3.00049" stroke="#A32C14" stroke-width="6" stroke-linecap="round"/>
<path d="M578 6.3821C562.308 0.0749793 552.892 3.22891 549.231 10.5866C545.569 17.9444 553.415 28.9818 563.354 34.7628C573.292 40.5438 578 44.2233 577.477 54.2088C576.954 64.1943 558.755 72.3689 544 62.6179" stroke="#46587D" stroke-width="6" stroke-linecap="round" stroke-linejoin="round"/>
</svg>
