<svg width="349" height="72" viewBox="0 0 349 72" fill="none" xmlns="http://www.w3.org/2000/svg">
<path d="M3.00049 68L13.5446 5.68502C13.628 5.19246 14.3025 5.11316 14.4978 5.57297L38.6682 62.4809C38.836 62.8759 39.3908 62.8899 39.5782 62.5038L67.2601 5.47502C67.4757 5.03091 68.1361 5.13471 68.205 5.62355L77.0005 68" stroke="#A32C14" stroke-width="6" stroke-linecap="round" stroke-linejoin="round"/>
<path d="M91.0005 5V69" stroke="#A32C14" stroke-width="6" stroke-linecap="round" stroke-linejoin="round"/>
<path d="M201 5V69" stroke="#A32C14" stroke-width="6" stroke-linecap="round" stroke-linejoin="round"/>
<path d="M139 8.38161C123.308 2.07449 113.893 5.22843 110.231 12.5862C106.57 19.9439 114.416 30.9813 124.354 36.7623C134.293 42.5433 139 46.2228 138.477 56.2083C137.954 66.1938 119.756 74.3684 105 64.6174" stroke="#A32C14" stroke-width="6" stroke-linecap="round" stroke-linejoin="round"/>
<path d="M187 8.38161C171.308 2.07449 161.893 5.22843 158.231 12.5862C154.57 19.9439 162.416 30.9813 172.354 36.7623C182.293 42.5433 187 46.2228 186.477 56.2083C185.954 66.1938 167.756 74.3684 153 64.6174" stroke="#A32C14" stroke-width="6" stroke-linecap="round" stroke-linejoin="round"/>
<path d="M215.33 37.5895C212.398 20.0105 229.584 3.44579 245.776 3.00956C261.968 2.57332 278.924 17.1177 277.961 37.5895C276.999 58.0613 263.263 66.435 245.776 66.9825C228.289 67.53 218.262 55.1685 215.33 37.5895Z" stroke="#A32C14" stroke-width="6" stroke-linecap="round" stroke-linejoin="round"/>
<path d="M292 67V6.92031C292 6.45924 292.571 6.24389 292.876 6.59012L345.125 66.0045C345.429 66.3507 346 66.1354 346 65.6743V3" stroke="#46587D" stroke-width="6" stroke-linecap="round" stroke-linejoin="round"/>
</svg>
