<svg width="1440" height="257" viewBox="0 0 1440 257" fill="none" xmlns="http://www.w3.org/2000/svg">
<path d="M1.44678 153.261C5.97861 152.809 25.9544 143.759 48.155 134.12C61.1237 128.49 68.0418 121.36 79.4262 111.091C99.7193 92.7871 115.031 91.2386 128.729 88.2334C131.517 87.6218 132.857 86.2002 157.501 85.7279C182.146 85.2555 230.038 85.7073 256.744 86.166C299.084 86.8932 319.033 97.0986 332.272 100.768C343.759 103.951 358.71 108.024 379.028 111.495C386.301 112.737 409.697 114.925 443.22 114.473C468.544 114.132 487.382 107.175 504.092 103.075C519.634 99.2611 530.811 95.7842 544.256 92.7995C555.581 90.2855 567.285 86.2002 577.588 83.6673C590.332 80.5341 592.685 78.1917 605 76.3571C620.199 74.0928 620.363 73.1159 633 70.3571C641.798 68.4364 658.518 72.2054 666.5 70.3571M828.5 70.3569C839 67.4499 852.094 65.6357 863.506 67.4498C874.413 69.1838 885.391 74.7542 900.685 81.1275C912.915 86.2246 921.92 85.2418 931.059 87.761C941.436 90.6216 952.041 94.3877 965.5 95.9759C974.418 97.0283 982.162 101.671 990.843 103.506C1004.63 106.421 1015.46 113.994 1026.67 118.56C1038.65 123.441 1056.53 124.509 1067.06 128.37C1078.13 132.435 1089.83 135.462 1101.97 137.05C1112.57 138.438 1139.45 140.938 1165.1 144.348C1193.81 148.163 1218.11 147.305 1226.99 151.406C1242.2 158.422 1254.65 166.487 1275.46 177.57C1294.49 187.704 1330.61 207.177 1349.91 217.864C1374.06 231.237 1380.14 235.382 1389.26 240.639C1397.49 243.624 1405.69 246.335 1423.68 248.183C1428.06 248.635 1430.77 249.539 1437.68 253.208" stroke="#B49C6A" stroke-width="6" stroke-linecap="round" stroke-dasharray="30 30"/>
<path d="M101.804 29.3501C104.049 35.8714 111.156 39.3376 117.677 37.0921C124.199 34.8467 127.665 27.7398 125.42 21.2185C123.174 14.6972 116.067 11.231 109.546 13.4764C103.025 15.7219 99.5583 22.8288 101.804 29.3501ZM120.397 22.948C121.687 26.6953 119.695 30.7791 115.948 32.0694C112.201 33.3597 108.117 31.3679 106.827 27.6206C105.536 23.8733 107.528 19.7895 111.275 18.4992C115.023 17.2089 119.106 19.2007 120.397 22.948Z" fill="#B49C6A"/>
<path d="M114.851 36.5551L115.01 42.5383M103.588 95.906L113.299 80.5686C113.343 80.4997 113.369 80.4211 113.376 80.3397L114.267 68.8324M114.267 68.8324L114.537 61.9467L115.01 42.5383M114.267 68.8324L126.166 74.0802C126.241 74.113 126.306 74.1635 126.357 74.2274L134.964 85.1026M114.267 68.8324L115.01 42.5383M115.01 42.5383L130.627 51.5132C130.851 51.6424 131.138 51.5783 131.286 51.3656L140.37 38.3345M115.01 42.5383L99.6152 59.3718C99.4809 59.5186 99.4465 59.7311 99.5276 59.9129L104.356 70.7356" stroke="#B49C6A" stroke-width="6" stroke-linecap="round" stroke-linejoin="round"/>
<path d="M1221.79 85.7652C1221.55 92.6581 1226.94 98.441 1233.83 98.6817C1240.73 98.9224 1246.51 93.5297 1246.75 86.6369C1246.99 79.744 1241.6 73.9611 1234.7 73.7204C1227.81 73.4797 1222.03 78.8724 1221.79 85.7652ZM1241.44 86.4515C1241.3 90.4123 1237.98 93.5111 1234.02 93.3727C1230.06 93.2344 1226.96 89.9114 1227.1 85.9506C1227.24 81.9898 1230.56 78.891 1234.52 79.0293C1238.48 79.1677 1241.58 82.4907 1241.44 86.4515Z" fill="#B49C6A"/>
<path d="M1231.39 97.1674L1229.5 104.357M1199.6 148.54L1214.16 137.701C1214.23 137.653 1214.28 137.589 1214.32 137.515L1219.27 127.091M1219.27 127.091L1221.99 120.76L1229.5 104.357M1219.27 127.091L1228.5 136.255C1228.56 136.312 1228.6 136.383 1228.63 136.461L1232.76 149.698M1219.27 127.091L1229.5 104.357M1229.5 104.357L1244 102.81L1258.5 101.357M1229.5 104.357L1209.02 113.018C1208.82 113.1 1208.7 113.295 1208.71 113.505L1209.34 125.316" stroke="#B49C6A" stroke-width="6" stroke-linecap="round" stroke-linejoin="round"/>
<path d="M1288.71 113.369C1286.81 119.999 1290.65 126.915 1297.28 128.816C1303.91 130.717 1310.82 126.883 1312.72 120.253C1314.62 113.624 1310.79 106.708 1304.16 104.807C1297.53 102.906 1290.61 106.739 1288.71 113.369ZM1307.62 118.789C1306.52 122.599 1302.55 124.802 1298.74 123.709C1294.93 122.617 1292.73 118.643 1293.82 114.833C1294.91 111.024 1298.89 108.821 1302.7 109.913C1306.51 111.006 1308.71 114.98 1307.62 118.789Z" fill="#B49C6A"/>
<path d="M1295.27 126.755L1291.97 131.747M1252 168.912L1268.75 161.918C1268.83 161.887 1268.89 161.837 1268.95 161.774L1276.28 152.859M1276.28 152.859L1280.45 147.374L1291.97 131.747M1276.28 152.859L1283.01 163.983C1283.06 164.053 1283.08 164.132 1283.09 164.213L1283.9 178.058M1276.28 152.859L1291.97 131.747M1291.97 131.747L1299.61 148.056C1299.72 148.291 1299.99 148.402 1300.24 148.313L1315.15 142.849M1291.97 131.747L1269.7 136.706C1269.51 136.749 1269.36 136.904 1269.32 137.099L1267.07 148.734" stroke="#B49C6A" stroke-width="6" stroke-linecap="round" stroke-linejoin="round"/>
<path d="M163.833 18.1284C164.912 24.9405 171.309 29.5882 178.121 28.5093C184.933 27.4304 189.581 21.0334 188.502 14.2212C187.423 7.40906 181.026 2.76137 174.214 3.84031C167.401 4.91925 162.754 11.3162 163.833 18.1284ZM183.255 15.0522C183.875 18.9667 181.204 22.6425 177.29 23.2625C173.375 23.8825 169.699 21.2118 169.079 17.2974C168.459 13.3829 171.13 9.70707 175.045 9.08708C178.959 8.46709 182.635 11.1378 183.255 15.0522Z" fill="#B49C6A"/>
<path d="M175.43 27.4896L174 35.3569M154.033 83.9831L166.259 70.565C166.314 70.5047 166.354 70.4319 166.374 70.3528L169.25 59.1751M169.25 59.1751L170.712 52.441L174 35.3569M169.25 59.1751L180.058 66.4095C180.125 66.4548 180.181 66.5159 180.219 66.5875L186.807 78.7921M169.25 59.1751L174 35.3569M174 35.3569L190.5 27.4896L202 22.3574M174 35.3569L156.492 47.3173C156.319 47.4354 156.238 47.6485 156.289 47.8515L159.159 59.3284" stroke="#B49C6A" stroke-width="6" stroke-linecap="round" stroke-linejoin="round"/>
<path d="M704.123 76.353H815.681C815.933 76.353 816.148 76.5449 816.168 76.7965C817.23 90.0119 792.551 99.8586 786.123 100.353C779.623 100.853 751.546 101.746 729.623 99.3531C710.169 95.735 697.623 89.853 697.123 84.353C696.623 78.853 704.123 76.353 704.123 76.353ZM704.123 76.353C720.623 65.3561 814.123 60.8569 816.123 75.853M721.623 69.3569C723.387 64.2701 724.832 63.1266 727.623 62.8569H788.623C791.807 63.2045 792.73 64.1131 793.623 66.3569M745.623 61.8569C747.882 52.6577 749.133 47.4361 753.623 47.3569H766.002C766.082 47.3569 766.161 47.3764 766.231 47.4131C771.096 49.9585 770.95 54.0477 770.623 61.3569M769.623 54.3569H758.623M698.623 84.353H711.623M710.123 72.3569C709.419 69.4896 701.623 59.8569 700.123 61.3569C698.623 62.8569 698.97 72.2515 698.623 79.3569M696.123 82.3569C696.123 82.3569 686.624 82.3569 685.124 82.3569C683.625 82.3569 683.625 86.3569 685.124 86.3569C686.624 86.3569 696.123 86.3569 696.123 86.3569M710.124 95.8569C705.624 102.84 703.18 106.083 700.044 106.779C699.804 106.833 699.569 106.681 699.497 106.446C697.294 99.188 698.397 95.8448 698.625 89.3569M755.625 45.8569V17.8569M764.125 45.8569V35.8569C764.125 35.5808 764.348 35.3569 764.625 35.3569H767.125M760.125 45.8569V34.3569C760.079 31.2875 760.613 30.46 762.038 29.8908C762.095 29.8681 762.156 29.8569 762.217 29.8569H767.625M767.625 29.8569C767.625 29.8569 766.125 33.3569 767.625 35.3569C769.125 37.3569 770.354 37.6096 771.625 35.3569C772.6 33.1723 772.538 31.9787 771.652 29.9208C771.634 29.8788 771.609 29.8381 771.58 29.8028C770.044 27.9346 769.173 27.7896 767.625 29.8569ZM689.625 80.8569C688.559 75.9097 688.308 73.1868 688.614 68.5098C688.621 68.411 688.658 68.3134 688.719 68.2356C690.518 65.9521 691.489 66.1179 693.036 68.2343C693.093 68.3132 693.127 68.4104 693.13 68.5081C693.307 73.3074 692.914 76.0407 691.625 80.8569M692.99 100.994C691.414 102.578 690.465 102.616 688.77 100.998C688.676 100.909 688.623 100.782 688.62 100.652C688.461 93.8378 688.785 90.7231 690.192 88.0981C690.373 87.7603 690.848 87.7767 691.021 88.1189C692.73 91.5084 693.338 94.2879 693.131 100.663C693.127 100.786 693.077 100.907 692.99 100.994Z" stroke="#B49C6A" stroke-width="4" stroke-linecap="round" stroke-linejoin="round"/>
</svg>
